# xmcd CD database file
# Copyright (C) 1993-1998 Ti Kan
#
# Track frame offsets:
# 150
# 10050
# 20112
# 31900
# 41925
# 49300
# 57050
# 69362
# 79425
# 90575
# 103825
# 118575
# 133137
# 143737
# 152962
# 166462
# 177050
# 189050
# 197025
# 211600
# 223562
# 237412
# 249950
# 258187
# 268500
#
# Disc length: 3728 seconds
# Revision: 0
# Processed by: cddbd v1.4b41PL1 Copyright (c) Steve Scherf et al.
# Submitted via: CDSpectrumPro v3.3.333
#
DISCID=5c0e8e19
DTITLE=The Wayfarers - The Australian Collection (2)
DYEAR=1900
DGENRE=
TTITLE0=Wallaby stew
TTITLE1=The Australian hot meat pie
TTITLE2=Shiek of Scrubby Creek
TTITLE3=On the hill
TTITLE4=Who put the roo in the stew
TTITLE5=I love you just like a pie
TTITLE6=Charlie Mopps
TTITLE7=Mulga Jack
TTITLE8=I love a sunburnt football
TTITLE9=Bachelor's lament
TTITLE10=As usual
TTITLE11=The Aussie barbecue
TTITLE12=Oh! What a barbie
TTITLE13=Redback on the toilet seat
TTITLE14=The last keg on earth
TTITLE15=Go bit yer bum
TTITLE16=Old man emu
TTITLE17=The city of Melbourne
TTITLE18=I hate wogs
TTITLE19=Wooloomooloo
TTITLE20=Bundaberg rum
TTITLE21=Life's a bugger
TTITLE22=I hope your chooks turn into emus
TTITLE23=Corn on the nose
TTITLE24=50 million blowflies can't be wrong
EXTD=
EXTT0=
EXTT1=
EXTT2=
EXTT3=
EXTT4=
EXTT5=
EXTT6=
EXTT7=
EXTT8=
EXTT9=
EXTT10=
EXTT11=
EXTT12=
EXTT13=
EXTT14=
EXTT15=
EXTT16=
EXTT17=
EXTT18=
EXTT19=
EXTT20=
EXTT21=
EXTT22=
EXTT23=
EXTT24=
PLAYORDER=
